<svg xmlns="http://www.w3.org/2000/svg" xmlns:xlink="http://www.w3.org/1999/xlink" width="500" zoomAndPan="magnify" viewBox="0 0 375 374.999991" height="500" preserveAspectRatio="xMidYMid meet" version="1.0"><defs><clipPath id="1eeb0fbec7"><path d="M 119 62 L 272.519531 62 L 272.519531 314 L 119 314 Z M 119 62 " clip-rule="nonzero"/></clipPath></defs><rect x="-37.5" width="450" fill="#FAEEDA" y="-37.499999" height="449.999989" fill-opacity="1"/><rect x="-37.5" width="450" fill="#FAEEDA" y="-37.499999" height="449.999989" fill-opacity="1"/><g clip-path="url(#1eeb0fbec7)"><path fill="#1b1b1b" d="M 270.90625 132.164062 C 270.925781 124.5625 270.910156 117.234375 267.335938 110.183594 C 261.988281 99.628906 250.921875 93.425781 239.28125 93.148438 C 238.726562 93.132812 238.21875 93.191406 237.746094 93.304688 C 237.046875 91.449219 236.148438 89.628906 235.027344 87.875 C 227.070312 75.421875 211.480469 70.890625 198.25 76.128906 C 191.203125 65.566406 178.621094 59.8125 165.558594 63.175781 C 152.832031 66.449219 144.003906 77.917969 143.226562 90.660156 C 125.53125 95.179688 115.054688 114.632812 122.246094 131.429688 C 120.828125 132.386719 119.871094 133.945312 119.871094 135.996094 C 119.871094 176.617188 119.871094 217.230469 119.871094 257.851562 C 119.871094 263.558594 119.871094 269.261719 119.871094 274.96875 C 119.871094 282.339844 131.324219 282.355469 131.324219 274.96875 C 131.324219 234.347656 131.324219 193.734375 131.324219 153.113281 C 131.324219 149.710938 131.324219 146.3125 131.324219 142.90625 C 172.539062 151.429688 210.996094 170.613281 240.554688 200.96875 C 245.710938 206.257812 253.804688 198.15625 248.65625 192.867188 C 236.453125 180.339844 222.761719 169.566406 207.996094 160.570312 C 224.835938 152.460938 242.628906 146.671875 260.953125 142.90625 C 260.953125 166.554688 260.953125 190.203125 260.953125 213.847656 C 260.953125 217.609375 260.953125 221.375 260.953125 225.132812 C 260.953125 236.894531 260.953125 248.652344 260.953125 260.414062 C 260.953125 267.976562 260.953125 275.542969 260.953125 283.105469 C 260.953125 287.261719 261.667969 292.203125 259.140625 295.789062 C 253.09375 304.375 237.898438 301.859375 228.773438 301.859375 C 212.496094 301.859375 196.214844 301.859375 179.9375 301.859375 C 168.667969 301.859375 157.398438 301.859375 146.128906 301.859375 C 138.757812 301.859375 138.742188 313.3125 146.128906 313.3125 C 173.070312 313.3125 200.015625 313.3125 226.957031 313.3125 C 238.066406 313.3125 251.929688 315.207031 261.660156 308.855469 C 268.929688 304.109375 272.40625 296.808594 272.40625 288.300781 C 272.40625 281.972656 272.40625 275.636719 272.40625 269.308594 C 272.40625 254.582031 272.40625 239.859375 272.40625 225.132812 C 272.40625 199.183594 272.40625 173.230469 272.40625 147.28125 C 272.40625 143.519531 272.40625 139.753906 272.40625 135.996094 C 272.410156 134.402344 271.828125 133.109375 270.90625 132.164062 Z M 239.554688 104.613281 C 247.859375 104.917969 255.386719 109.917969 258.257812 117.875 C 259.804688 122.164062 259.59375 126.957031 259.484375 131.539062 C 250.328125 133.367188 241.300781 135.6875 232.4375 138.539062 C 231.539062 134.613281 229.960938 130.933594 227.832031 127.644531 C 234.960938 121.902344 239.203125 113.386719 239.554688 104.613281 Z M 149.042969 101.191406 C 151.894531 101.015625 155.097656 98.699219 154.769531 95.464844 C 153.851562 86.316406 158.304688 77.46875 167.445312 74.550781 C 176.585938 71.636719 186.800781 76.3125 190.425781 85.25 C 191.742188 88.496094 195.410156 90.855469 198.839844 88.671875 C 207.644531 83.066406 219.222656 84.707031 225.144531 93.65625 C 230.796875 102.195312 228.167969 113.421875 220.082031 119.214844 C 214.621094 115.019531 207.828125 112.507812 200.375 112.492188 C 183.566406 112.460938 170.109375 125.296875 167.792969 141.3125 C 157.433594 137.546875 146.792969 134.5 135.980469 132.1875 C 126.757812 120.148438 133.046875 102.171875 149.042969 101.191406 Z M 178.871094 145.671875 C 178.875 145.59375 178.886719 145.511719 178.890625 145.425781 C 179.164062 133.703125 188.445312 123.945312 200.375 123.945312 C 211.242188 123.945312 219.90625 132.039062 221.570312 142.339844 C 212.847656 145.628906 204.316406 149.4375 196.023438 153.785156 C 190.429688 150.839844 184.703125 148.140625 178.871094 145.671875 Z M 178.871094 145.671875 " fill-opacity="1" fill-rule="nonzero"/></g><path fill="#1b1b1b" d="M 181.613281 208.960938 C 181.613281 209.570312 181.550781 210.171875 181.433594 210.765625 C 181.316406 211.363281 181.140625 211.941406 180.90625 212.5 C 180.675781 213.0625 180.390625 213.59375 180.050781 214.101562 C 179.714844 214.605469 179.332031 215.074219 178.902344 215.503906 C 178.472656 215.929688 178.003906 216.316406 177.5 216.652344 C 176.996094 216.988281 176.460938 217.273438 175.902344 217.507812 C 175.339844 217.738281 174.761719 217.914062 174.164062 218.035156 C 173.570312 218.152344 172.96875 218.210938 172.363281 218.210938 C 171.753906 218.210938 171.152344 218.152344 170.558594 218.035156 C 169.960938 217.914062 169.382812 217.738281 168.820312 217.507812 C 168.261719 217.273438 167.726562 216.988281 167.222656 216.652344 C 166.71875 216.316406 166.25 215.929688 165.820312 215.503906 C 165.390625 215.074219 165.007812 214.605469 164.671875 214.101562 C 164.332031 213.59375 164.046875 213.0625 163.816406 212.5 C 163.582031 211.941406 163.40625 211.363281 163.289062 210.765625 C 163.171875 210.171875 163.109375 209.570312 163.109375 208.960938 C 163.109375 208.355469 163.171875 207.753906 163.289062 207.15625 C 163.40625 206.5625 163.582031 205.980469 163.816406 205.421875 C 164.046875 204.859375 164.332031 204.328125 164.671875 203.820312 C 165.007812 203.316406 165.390625 202.851562 165.820312 202.421875 C 166.25 201.992188 166.71875 201.605469 167.222656 201.269531 C 167.726562 200.933594 168.261719 200.648438 168.820312 200.414062 C 169.382812 200.183594 169.960938 200.007812 170.558594 199.890625 C 171.152344 199.769531 171.753906 199.710938 172.363281 199.710938 C 172.96875 199.710938 173.570312 199.769531 174.164062 199.890625 C 174.761719 200.007812 175.339844 200.183594 175.902344 200.414062 C 176.460938 200.648438 176.996094 200.933594 177.5 201.269531 C 178.003906 201.605469 178.472656 201.992188 178.902344 202.421875 C 179.332031 202.851562 179.714844 203.316406 180.050781 203.820312 C 180.390625 204.328125 180.675781 204.859375 180.90625 205.421875 C 181.140625 205.980469 181.316406 206.5625 181.433594 207.15625 C 181.550781 207.753906 181.613281 208.355469 181.613281 208.960938 Z M 181.613281 208.960938 " fill-opacity="1" fill-rule="nonzero"/><path fill="#1b1b1b" d="M 243.179688 246.550781 C 243.179688 247.15625 243.121094 247.757812 243.003906 248.355469 C 242.882812 248.949219 242.710938 249.527344 242.476562 250.089844 C 242.246094 250.652344 241.960938 251.183594 241.621094 251.6875 C 241.285156 252.195312 240.902344 252.660156 240.472656 253.089844 C 240.042969 253.519531 239.574219 253.902344 239.070312 254.242188 C 238.566406 254.578125 238.03125 254.863281 237.46875 255.097656 C 236.910156 255.328125 236.332031 255.503906 235.734375 255.621094 C 235.140625 255.742188 234.539062 255.800781 233.929688 255.800781 C 233.324219 255.800781 232.722656 255.742188 232.125 255.621094 C 231.53125 255.503906 230.953125 255.328125 230.390625 255.097656 C 229.828125 254.863281 229.296875 254.578125 228.792969 254.242188 C 228.285156 253.902344 227.820312 253.519531 227.390625 253.089844 C 226.960938 252.660156 226.578125 252.195312 226.238281 251.6875 C 225.902344 251.183594 225.617188 250.652344 225.382812 250.089844 C 225.152344 249.527344 224.976562 248.949219 224.859375 248.355469 C 224.738281 247.757812 224.679688 247.15625 224.679688 246.550781 C 224.679688 245.941406 224.738281 245.339844 224.859375 244.746094 C 224.976562 244.148438 225.152344 243.570312 225.382812 243.011719 C 225.617188 242.449219 225.902344 241.917969 226.238281 241.410156 C 226.578125 240.90625 226.960938 240.4375 227.390625 240.007812 C 227.820312 239.578125 228.285156 239.195312 228.792969 238.859375 C 229.296875 238.523438 229.828125 238.238281 230.390625 238.003906 C 230.953125 237.773438 231.53125 237.597656 232.125 237.476562 C 232.722656 237.359375 233.324219 237.300781 233.929688 237.300781 C 234.539062 237.300781 235.140625 237.359375 235.734375 237.476562 C 236.332031 237.597656 236.910156 237.773438 237.46875 238.003906 C 238.03125 238.238281 238.566406 238.523438 239.070312 238.859375 C 239.574219 239.195312 240.042969 239.578125 240.472656 240.007812 C 240.902344 240.4375 241.285156 240.90625 241.621094 241.410156 C 241.960938 241.917969 242.246094 242.449219 242.476562 243.011719 C 242.710938 243.570312 242.882812 244.148438 243.003906 244.746094 C 243.121094 245.339844 243.179688 245.941406 243.179688 246.550781 Z M 243.179688 246.550781 " fill-opacity="1" fill-rule="nonzero"/><path fill="#1b1b1b" d="M 187.640625 272.230469 C 187.640625 272.835938 187.578125 273.4375 187.460938 274.035156 C 187.34375 274.628906 187.167969 275.207031 186.933594 275.769531 C 186.703125 276.332031 186.417969 276.863281 186.082031 277.367188 C 185.742188 277.875 185.359375 278.339844 184.929688 278.769531 C 184.5 279.199219 184.035156 279.582031 183.527344 279.921875 C 183.023438 280.257812 182.488281 280.542969 181.929688 280.777344 C 181.367188 281.007812 180.789062 281.183594 180.195312 281.300781 C 179.597656 281.421875 178.996094 281.480469 178.390625 281.480469 C 177.78125 281.480469 177.179688 281.421875 176.585938 281.300781 C 175.988281 281.183594 175.410156 281.007812 174.847656 280.777344 C 174.289062 280.542969 173.753906 280.257812 173.25 279.921875 C 172.746094 279.582031 172.277344 279.199219 171.847656 278.769531 C 171.417969 278.339844 171.035156 277.875 170.699219 277.367188 C 170.359375 276.863281 170.074219 276.332031 169.84375 275.769531 C 169.609375 275.207031 169.433594 274.628906 169.316406 274.035156 C 169.199219 273.4375 169.140625 272.835938 169.140625 272.230469 C 169.140625 271.621094 169.199219 271.019531 169.316406 270.425781 C 169.433594 269.828125 169.609375 269.25 169.84375 268.691406 C 170.074219 268.128906 170.359375 267.59375 170.699219 267.089844 C 171.035156 266.585938 171.417969 266.117188 171.847656 265.6875 C 172.277344 265.257812 172.746094 264.875 173.25 264.539062 C 173.753906 264.199219 174.289062 263.917969 174.847656 263.683594 C 175.410156 263.453125 175.988281 263.277344 176.585938 263.15625 C 177.179688 263.039062 177.78125 262.980469 178.390625 262.980469 C 178.996094 262.980469 179.597656 263.039062 180.195312 263.15625 C 180.789062 263.277344 181.367188 263.453125 181.929688 263.683594 C 182.488281 263.917969 183.023438 264.199219 183.527344 264.539062 C 184.035156 264.875 184.5 265.257812 184.929688 265.6875 C 185.359375 266.117188 185.742188 266.585938 186.082031 267.089844 C 186.417969 267.59375 186.703125 268.128906 186.933594 268.691406 C 187.167969 269.25 187.34375 269.828125 187.460938 270.425781 C 187.578125 271.019531 187.640625 271.621094 187.640625 272.230469 Z M 187.640625 272.230469 " fill-opacity="1" fill-rule="nonzero"/></svg>
