<svg xmlns="http://www.w3.org/2000/svg" xmlns:xlink="http://www.w3.org/1999/xlink" width="500" zoomAndPan="magnify" viewBox="0 0 375 374.999991" height="500" preserveAspectRatio="xMidYMid meet" version="1.0"><defs><g/><clipPath id="d608839f89"><path d="M 68.828125 68.828125 L 299.839844 68.828125 L 299.839844 299.839844 L 68.828125 299.839844 Z M 68.828125 68.828125 " clip-rule="nonzero"/></clipPath><clipPath id="a59f86e15f"><path d="M 184.335938 68.828125 C 120.542969 68.828125 68.828125 120.542969 68.828125 184.335938 C 68.828125 248.128906 120.542969 299.839844 184.335938 299.839844 C 248.128906 299.839844 299.839844 248.128906 299.839844 184.335938 C 299.839844 120.542969 248.128906 68.828125 184.335938 68.828125 Z M 184.335938 68.828125 " clip-rule="nonzero"/></clipPath><clipPath id="2fe5b99b4c"><path d="M 117.617188 117.617188 L 257.382812 117.617188 L 257.382812 257.382812 L 117.617188 257.382812 Z M 117.617188 117.617188 " clip-rule="nonzero"/></clipPath><clipPath id="3953ad047b"><path d="M 187.5 117.617188 C 148.902344 117.617188 117.617188 148.902344 117.617188 187.5 C 117.617188 226.097656 148.902344 257.382812 187.5 257.382812 C 226.097656 257.382812 257.382812 226.097656 257.382812 187.5 C 257.382812 148.902344 226.097656 117.617188 187.5 117.617188 Z M 187.5 117.617188 " clip-rule="nonzero"/></clipPath><clipPath id="b85a695f9f"><path d="M 145 141 L 239 141 L 239 241 L 145 241 Z M 145 141 " clip-rule="nonzero"/></clipPath><clipPath id="203edfe006"><path d="M 132.757812 157.984375 L 187.984375 124.667969 L 242.226562 214.574219 L 187 247.890625 Z M 132.757812 157.984375 " clip-rule="nonzero"/></clipPath><clipPath id="1b50e596c7"><path d="M 132.757812 157.984375 L 187.984375 124.667969 L 242.226562 214.574219 L 187 247.890625 Z M 132.757812 157.984375 " clip-rule="nonzero"/></clipPath><clipPath id="82201927b7"><path d="M 180 194 L 189 194 L 189 203 L 180 203 Z M 180 194 " clip-rule="nonzero"/></clipPath><clipPath id="4cade0587b"><path d="M 132.757812 157.984375 L 187.984375 124.667969 L 242.226562 214.574219 L 187 247.890625 Z M 132.757812 157.984375 " clip-rule="nonzero"/></clipPath><clipPath id="4884a8d2b7"><path d="M 132.757812 157.984375 L 187.984375 124.667969 L 242.226562 214.574219 L 187 247.890625 Z M 132.757812 157.984375 " clip-rule="nonzero"/></clipPath><clipPath id="9ee155427b"><path d="M 210 194 L 218 194 L 218 203 L 210 203 Z M 210 194 " clip-rule="nonzero"/></clipPath><clipPath id="016ac8d274"><path d="M 132.757812 157.984375 L 187.984375 124.667969 L 242.226562 214.574219 L 187 247.890625 Z M 132.757812 157.984375 " clip-rule="nonzero"/></clipPath><clipPath id="5d5cc580bf"><path d="M 132.757812 157.984375 L 187.984375 124.667969 L 242.226562 214.574219 L 187 247.890625 Z M 132.757812 157.984375 " clip-rule="nonzero"/></clipPath><clipPath id="f115922a12"><path d="M 196 215 L 204 215 L 204 223 L 196 223 Z M 196 215 " clip-rule="nonzero"/></clipPath><clipPath id="cf488422a9"><path d="M 132.757812 157.984375 L 187.984375 124.667969 L 242.226562 214.574219 L 187 247.890625 Z M 132.757812 157.984375 " clip-rule="nonzero"/></clipPath><clipPath id="a3d67f7748"><path d="M 132.757812 157.984375 L 187.984375 124.667969 L 242.226562 214.574219 L 187 247.890625 Z M 132.757812 157.984375 " clip-rule="nonzero"/></clipPath></defs><rect x="-37.5" width="450" fill="#FAEEDA" y="-37.499999" height="449.999989" fill-opacity="1"/><rect x="-37.5" width="450" fill="#FAEEDA" y="-37.499999" height="449.999989" fill-opacity="1"/><g clip-path="url(#d608839f89)"><g clip-path="url(#a59f86e15f)"><path fill="#000000" d="M 68.828125 68.828125 L 299.839844 68.828125 L 299.839844 299.839844 L 68.828125 299.839844 Z M 68.828125 68.828125 " fill-opacity="1" fill-rule="nonzero"/></g></g><g clip-path="url(#2fe5b99b4c)"><g clip-path="url(#3953ad047b)"><path fill="#FAEEDA" d="M 117.617188 117.617188 L 257.382812 117.617188 L 257.382812 257.382812 L 117.617188 257.382812 Z M 117.617188 117.617188 " fill-opacity="1" fill-rule="nonzero"/></g></g><g clip-path="url(#b85a695f9f)"><g clip-path="url(#203edfe006)"><g clip-path="url(#1b50e596c7)"><path fill="#1b1b1b" d="M 202.875 150.367188 C 201.273438 147.691406 199.714844 145.121094 196.960938 143.402344 C 192.84375 140.824219 187.640625 140.992188 183.492188 143.363281 C 183.292969 143.472656 183.128906 143.601562 182.984375 143.742188 C 182.347656 143.238281 181.644531 142.789062 180.878906 142.410156 C 175.441406 139.722656 169.003906 141.433594 165.464844 146.078125 C 160.75 143.863281 155.109375 144.507812 151.230469 148.457031 C 147.453125 152.308594 146.78125 158.210938 149.210938 162.851562 C 143.949219 168.191406 144.394531 177.25 150.480469 181.625 C 150.183594 182.261719 150.179688 183.011719 150.613281 183.734375 C 159.226562 198.007812 167.835938 212.28125 176.449219 226.554688 C 177.65625 228.558594 178.867188 230.566406 180.078125 232.570312 C 181.640625 235.160156 185.667969 232.738281 184.101562 230.144531 C 175.488281 215.867188 166.878906 201.597656 158.265625 187.320312 C 157.546875 186.125 156.824219 184.929688 156.105469 183.734375 C 172.394531 177.992188 189.976562 176.578125 206.796875 180.980469 C 209.730469 181.746094 210.859375 177.183594 207.925781 176.417969 C 200.984375 174.601562 193.886719 173.71875 186.789062 173.6875 C 190.988281 167.265625 196.015625 161.460938 201.65625 156.253906 C 206.671875 164.5625 211.683594 172.875 216.695312 181.183594 C 217.492188 182.503906 218.292969 183.828125 219.089844 185.148438 C 221.582031 189.28125 224.074219 193.414062 226.570312 197.546875 C 228.171875 200.203125 229.777344 202.863281 231.378906 205.519531 C 232.261719 206.980469 233.558594 208.566406 233.433594 210.359375 C 233.128906 214.660156 227.253906 217 224.046875 218.933594 C 218.328125 222.382812 212.605469 225.835938 206.886719 229.285156 C 202.925781 231.675781 198.964844 234.0625 195.003906 236.453125 C 192.414062 238.015625 194.839844 242.042969 197.433594 240.476562 C 206.902344 234.765625 216.371094 229.054688 225.835938 223.34375 C 229.742188 220.988281 235.015625 218.714844 237.085938 214.417969 C 238.636719 211.207031 238.308594 207.90625 236.503906 204.917969 C 235.164062 202.695312 233.820312 200.46875 232.480469 198.242188 C 229.355469 193.070312 226.234375 187.894531 223.113281 182.71875 C 217.613281 173.601562 212.109375 164.480469 206.609375 155.363281 C 205.8125 154.039062 205.011719 152.71875 204.214844 151.394531 C 203.878906 150.835938 203.402344 150.503906 202.875 150.367188 Z M 186.019531 147.332031 C 189 145.679688 192.707031 145.839844 195.402344 148.027344 C 196.855469 149.207031 197.796875 150.933594 198.730469 152.570312 C 195.902344 155.152344 193.21875 157.882812 190.710938 160.761719 C 189.5625 159.574219 188.226562 158.617188 186.78125 157.910156 C 188.070312 154.382812 187.753906 150.488281 186.019531 147.332031 Z M 153.488281 165.320312 C 154.453125 164.652344 155.085938 163.160156 154.285156 162.09375 C 152.023438 159.070312 151.710938 155.019531 154.304688 152.054688 C 156.898438 149.09375 161.480469 148.570312 164.648438 150.945312 C 165.800781 151.804688 167.589844 151.855469 168.332031 150.363281 C 170.238281 146.527344 174.652344 144.648438 178.632812 146.539062 C 182.429688 148.339844 183.886719 152.84375 182.269531 156.59375 C 179.464844 156.277344 176.542969 156.832031 173.921875 158.40625 C 168.007812 161.960938 166 169.324219 168.582031 175.445312 C 164.144531 176.316406 159.757812 177.5 155.46875 178.980469 C 149.675781 176.707031 148.074219 169.054688 153.488281 165.320312 Z M 173.398438 174.625 C 173.382812 174.597656 173.371094 174.566406 173.355469 174.535156 C 170.964844 170.359375 172.15625 164.960938 176.347656 162.433594 C 180.167969 160.128906 184.925781 161.136719 187.695312 164.402344 C 185.328125 167.40625 183.136719 170.554688 181.148438 173.839844 C 178.554688 173.992188 175.972656 174.257812 173.398438 174.625 Z M 173.398438 174.625 " fill-opacity="1" fill-rule="nonzero"/></g></g></g><g clip-path="url(#82201927b7)"><g clip-path="url(#4cade0587b)"><g clip-path="url(#4884a8d2b7)"><path fill="#1b1b1b" d="M 187.777344 196.285156 C 188.039062 196.714844 188.207031 197.179688 188.28125 197.679688 C 188.359375 198.175781 188.335938 198.667969 188.214844 199.160156 C 188.09375 199.648438 187.882812 200.09375 187.585938 200.5 C 187.285156 200.90625 186.921875 201.238281 186.488281 201.496094 C 186.058594 201.757812 185.59375 201.925781 185.097656 202 C 184.597656 202.074219 184.105469 202.054688 183.617188 201.933594 C 183.128906 201.8125 182.679688 201.601562 182.277344 201.300781 C 181.871094 201.003906 181.539062 200.640625 181.277344 200.207031 C 181.019531 199.777344 180.851562 199.3125 180.773438 198.816406 C 180.699219 198.316406 180.722656 197.824219 180.84375 197.335938 C 180.964844 196.847656 181.175781 196.398438 181.472656 195.992188 C 181.773438 195.589844 182.136719 195.257812 182.566406 194.996094 C 183 194.734375 183.464844 194.566406 183.960938 194.492188 C 184.457031 194.417969 184.953125 194.441406 185.441406 194.5625 C 185.929688 194.683594 186.375 194.890625 186.78125 195.191406 C 187.1875 195.488281 187.519531 195.855469 187.777344 196.285156 Z M 187.777344 196.285156 " fill-opacity="1" fill-rule="nonzero"/></g></g></g><g clip-path="url(#9ee155427b)"><g clip-path="url(#016ac8d274)"><g clip-path="url(#5d5cc580bf)"><path fill="#1b1b1b" d="M 217.382812 196.441406 C 217.644531 196.871094 217.8125 197.335938 217.886719 197.835938 C 217.960938 198.332031 217.941406 198.824219 217.820312 199.316406 C 217.699219 199.804688 217.488281 200.25 217.1875 200.65625 C 216.890625 201.0625 216.527344 201.394531 216.09375 201.652344 C 215.664062 201.914062 215.199219 202.082031 214.703125 202.15625 C 214.203125 202.230469 213.710938 202.207031 213.222656 202.089844 C 212.734375 201.96875 212.285156 201.757812 211.882812 201.457031 C 211.476562 201.160156 211.144531 200.796875 210.882812 200.363281 C 210.621094 199.933594 210.457031 199.46875 210.378906 198.96875 C 210.304688 198.472656 210.328125 197.980469 210.449219 197.492188 C 210.570312 197.003906 210.777344 196.554688 211.078125 196.148438 C 211.375 195.746094 211.742188 195.414062 212.171875 195.152344 C 212.605469 194.890625 213.066406 194.722656 213.566406 194.648438 C 214.0625 194.574219 214.558594 194.597656 215.046875 194.71875 C 215.535156 194.839844 215.980469 195.046875 216.386719 195.347656 C 216.792969 195.644531 217.125 196.011719 217.382812 196.441406 Z M 217.382812 196.441406 " fill-opacity="1" fill-rule="nonzero"/></g></g></g><g clip-path="url(#f115922a12)"><g clip-path="url(#cf488422a9)"><g clip-path="url(#a3d67f7748)"><path fill="#1b1b1b" d="M 203.3125 217.242188 C 203.570312 217.671875 203.738281 218.136719 203.8125 218.632812 C 203.890625 219.132812 203.867188 219.625 203.746094 220.113281 C 203.625 220.601562 203.414062 221.050781 203.117188 221.453125 C 202.816406 221.859375 202.453125 222.191406 202.019531 222.453125 C 201.589844 222.710938 201.125 222.878906 200.628906 222.957031 C 200.128906 223.03125 199.636719 223.007812 199.148438 222.886719 C 198.660156 222.765625 198.210938 222.554688 197.808594 222.257812 C 197.402344 221.957031 197.070312 221.59375 196.808594 221.164062 C 196.550781 220.730469 196.382812 220.265625 196.304688 219.769531 C 196.230469 219.273438 196.253906 218.777344 196.375 218.289062 C 196.496094 217.800781 196.707031 217.355469 197.003906 216.949219 C 197.304688 216.542969 197.667969 216.210938 198.097656 215.953125 C 198.53125 215.691406 198.996094 215.523438 199.492188 215.449219 C 199.988281 215.371094 200.484375 215.394531 200.972656 215.515625 C 201.460938 215.636719 201.90625 215.847656 202.3125 216.144531 C 202.71875 216.445312 203.050781 216.808594 203.3125 217.242188 Z M 203.3125 217.242188 " fill-opacity="1" fill-rule="nonzero"/></g></g></g><g fill="#FAEEDA" fill-opacity="1"><g transform="translate(105.849822, 167.74469)"><g><path d="M 4.359375 -8.515625 C 4.117188 -7.984375 3.828125 -7.519531 3.484375 -7.125 C 3.148438 -6.738281 2.773438 -6.472656 2.359375 -6.328125 C 1.941406 -6.191406 1.503906 -6.226562 1.046875 -6.4375 C 0.660156 -6.601562 0.328125 -6.820312 0.046875 -7.09375 C -0.234375 -7.363281 -0.503906 -7.65625 -0.765625 -7.96875 C -1.035156 -8.289062 -1.320312 -8.617188 -1.625 -8.953125 C -1.925781 -9.296875 -2.296875 -9.632812 -2.734375 -9.96875 C -3.171875 -10.3125 -3.710938 -10.628906 -4.359375 -10.921875 C -4.953125 -11.160156 -5.453125 -11.300781 -5.859375 -11.34375 C -6.273438 -11.394531 -6.625 -11.390625 -6.90625 -11.328125 C -7.1875 -11.273438 -7.445312 -11.234375 -7.6875 -11.203125 C -8.550781 -11.097656 -9.304688 -10.898438 -9.953125 -10.609375 C -10.609375 -10.328125 -11.175781 -10.003906 -11.65625 -9.640625 C -12.132812 -9.285156 -12.570312 -8.929688 -12.96875 -8.578125 C -13.363281 -8.234375 -13.742188 -7.941406 -14.109375 -7.703125 C -14.472656 -7.460938 -14.847656 -7.3125 -15.234375 -7.25 C -15.628906 -7.1875 -16.078125 -7.269531 -16.578125 -7.5 C -17.054688 -7.707031 -17.445312 -8.007812 -17.75 -8.40625 C -18.0625 -8.800781 -18.28125 -9.226562 -18.40625 -9.6875 C -18.53125 -10.15625 -18.582031 -10.625 -18.5625 -11.09375 C -18.539062 -11.570312 -18.441406 -12.007812 -18.265625 -12.40625 C -17.960938 -13.0625 -17.601562 -13.539062 -17.1875 -13.84375 C -16.769531 -14.144531 -16.296875 -14.300781 -15.765625 -14.3125 C -15.242188 -14.320312 -14.671875 -14.234375 -14.046875 -14.046875 C -13.734375 -13.972656 -13.414062 -13.898438 -13.09375 -13.828125 C -12.769531 -13.765625 -12.421875 -13.722656 -12.046875 -13.703125 C -11.671875 -13.691406 -11.222656 -13.726562 -10.703125 -13.8125 C -10.191406 -13.90625 -9.578125 -14.054688 -8.859375 -14.265625 C -8.597656 -14.328125 -8.40625 -14.394531 -8.28125 -14.46875 C -8.164062 -14.539062 -8.09375 -14.613281 -8.0625 -14.6875 C -8.019531 -14.769531 -8.015625 -14.890625 -8.046875 -15.046875 C -8.078125 -15.203125 -8.179688 -15.398438 -8.359375 -15.640625 C -8.585938 -15.992188 -8.828125 -16.363281 -9.078125 -16.75 C -9.328125 -17.144531 -9.632812 -17.53125 -10 -17.90625 C -10.363281 -18.28125 -10.816406 -18.617188 -11.359375 -18.921875 C -12.453125 -19.609375 -13.109375 -20.40625 -13.328125 -21.3125 C -13.554688 -22.21875 -13.445312 -23.164062 -13 -24.15625 C -12.75 -24.707031 -12.421875 -25.175781 -12.015625 -25.5625 C -11.617188 -25.957031 -11.179688 -26.21875 -10.703125 -26.34375 C -10.222656 -26.476562 -9.75 -26.441406 -9.28125 -26.234375 C -8.8125 -26.023438 -8.4375 -25.742188 -8.15625 -25.390625 C -7.882812 -25.046875 -7.675781 -24.644531 -7.53125 -24.1875 C -7.394531 -23.726562 -7.28125 -23.226562 -7.1875 -22.6875 C -7.09375 -22.15625 -6.992188 -21.597656 -6.890625 -21.015625 C -6.796875 -20.441406 -6.65625 -19.859375 -6.46875 -19.265625 C -6.28125 -18.671875 -6.007812 -18.078125 -5.65625 -17.484375 C -5.40625 -17.046875 -5.179688 -16.675781 -4.984375 -16.375 C -4.785156 -16.070312 -4.585938 -15.8125 -4.390625 -15.59375 C -4.191406 -15.382812 -3.96875 -15.195312 -3.71875 -15.03125 C -3.476562 -14.863281 -3.1875 -14.691406 -2.84375 -14.515625 C -2.175781 -14.210938 -1.582031 -14.015625 -1.0625 -13.921875 C -0.550781 -13.828125 -0.0859375 -13.785156 0.328125 -13.796875 C 0.753906 -13.804688 1.148438 -13.828125 1.515625 -13.859375 C 1.890625 -13.890625 2.253906 -13.890625 2.609375 -13.859375 C 2.972656 -13.835938 3.359375 -13.738281 3.765625 -13.5625 C 4.140625 -13.394531 4.421875 -13.128906 4.609375 -12.765625 C 4.804688 -12.398438 4.921875 -11.976562 4.953125 -11.5 C 4.984375 -11.03125 4.941406 -10.535156 4.828125 -10.015625 C 4.722656 -9.492188 4.566406 -8.992188 4.359375 -8.515625 Z M 4.359375 -8.515625 "/></g></g></g><g fill="#FAEEDA" fill-opacity="1"><g transform="translate(115.978084, 146.396284)"><g><path d="M 6.4375 -6.953125 C 5.613281 -5.972656 4.679688 -5.226562 3.640625 -4.71875 C 2.597656 -4.207031 1.488281 -3.9375 0.3125 -3.90625 C -0.863281 -3.882812 -2.070312 -4.117188 -3.3125 -4.609375 C -4.5625 -5.109375 -5.796875 -5.867188 -7.015625 -6.890625 C -7.929688 -7.648438 -8.75 -8.488281 -9.46875 -9.40625 C -10.195312 -10.320312 -10.789062 -11.296875 -11.25 -12.328125 C -11.71875 -13.359375 -12.015625 -14.398438 -12.140625 -15.453125 C -12.265625 -16.515625 -12.179688 -17.5625 -11.890625 -18.59375 C -11.609375 -19.625 -11.085938 -20.601562 -10.328125 -21.53125 C -9.566406 -22.445312 -8.675781 -23.160156 -7.65625 -23.671875 C -6.632812 -24.191406 -5.519531 -24.472656 -4.3125 -24.515625 C -3.113281 -24.566406 -1.859375 -24.347656 -0.546875 -23.859375 C 0.753906 -23.367188 2.078125 -22.5625 3.421875 -21.4375 C 4.296875 -20.71875 5.082031 -19.914062 5.78125 -19.03125 C 6.488281 -18.144531 7.066406 -17.203125 7.515625 -16.203125 C 7.972656 -15.203125 8.257812 -14.175781 8.375 -13.125 C 8.488281 -12.082031 8.394531 -11.035156 8.09375 -9.984375 C 7.800781 -8.941406 7.25 -7.929688 6.4375 -6.953125 Z M 4.34375 -9.40625 C 4.65625 -9.78125 4.816406 -10.207031 4.828125 -10.6875 C 4.847656 -11.164062 4.742188 -11.671875 4.515625 -12.203125 C 4.296875 -12.742188 3.984375 -13.289062 3.578125 -13.84375 C 3.179688 -14.40625 2.71875 -14.957031 2.1875 -15.5 C 1.664062 -16.039062 1.113281 -16.554688 0.53125 -17.046875 C -0.0625 -17.535156 -0.675781 -17.992188 -1.3125 -18.421875 C -1.957031 -18.847656 -2.59375 -19.210938 -3.21875 -19.515625 C -3.851562 -19.816406 -4.453125 -20.023438 -5.015625 -20.140625 C -5.585938 -20.265625 -6.113281 -20.269531 -6.59375 -20.15625 C -7.082031 -20.050781 -7.488281 -19.804688 -7.8125 -19.421875 C -8.1875 -18.972656 -8.367188 -18.445312 -8.359375 -17.84375 C -8.359375 -17.238281 -8.195312 -16.59375 -7.875 -15.90625 C -7.5625 -15.226562 -7.117188 -14.539062 -6.546875 -13.84375 C -5.972656 -13.144531 -5.296875 -12.46875 -4.515625 -11.8125 C -3.597656 -11.050781 -2.691406 -10.414062 -1.796875 -9.90625 C -0.910156 -9.394531 -0.0703125 -9.019531 0.71875 -8.78125 C 1.519531 -8.550781 2.226562 -8.484375 2.84375 -8.578125 C 3.457031 -8.671875 3.957031 -8.945312 4.34375 -9.40625 Z M 4.34375 -9.40625 "/></g></g></g><g fill="#FAEEDA" fill-opacity="1"><g transform="translate(131.040747, 129.020948)"><g><path d="M 8.109375 -5.28125 C 6.910156 -4.445312 5.800781 -3.9375 4.78125 -3.75 C 3.757812 -3.5625 2.800781 -3.617188 1.90625 -3.921875 C 1.019531 -4.234375 0.195312 -4.738281 -0.5625 -5.4375 C -1.320312 -6.132812 -2.023438 -6.953125 -2.671875 -7.890625 L -5.109375 -11.375 C -5.566406 -12.039062 -6.007812 -12.570312 -6.4375 -12.96875 C -6.863281 -13.375 -7.273438 -13.695312 -7.671875 -13.9375 C -8.066406 -14.1875 -8.429688 -14.394531 -8.765625 -14.5625 C -9.097656 -14.726562 -9.410156 -14.910156 -9.703125 -15.109375 C -10.003906 -15.316406 -10.273438 -15.59375 -10.515625 -15.9375 C -10.847656 -16.40625 -10.976562 -16.898438 -10.90625 -17.421875 C -10.832031 -17.941406 -10.617188 -18.441406 -10.265625 -18.921875 C -9.921875 -19.410156 -9.492188 -19.832031 -8.984375 -20.1875 C -8.585938 -20.46875 -8.160156 -20.691406 -7.703125 -20.859375 C -7.242188 -21.023438 -6.785156 -21.109375 -6.328125 -21.109375 C -5.878906 -21.117188 -5.457031 -21.035156 -5.0625 -20.859375 C -4.664062 -20.679688 -4.316406 -20.378906 -4.015625 -19.953125 C -3.765625 -19.597656 -3.597656 -19.25 -3.515625 -18.90625 C -3.441406 -18.570312 -3.398438 -18.226562 -3.390625 -17.875 C -3.378906 -17.53125 -3.335938 -17.148438 -3.265625 -16.734375 C -3.191406 -16.316406 -3.046875 -15.835938 -2.828125 -15.296875 C -2.617188 -14.765625 -2.273438 -14.148438 -1.796875 -13.453125 L 0.109375 -10.71875 C 1.316406 -9 2.414062 -7.90625 3.40625 -7.4375 C 4.394531 -6.976562 5.382812 -7.09375 6.375 -7.78125 C 7.363281 -8.476562 7.804688 -9.367188 7.703125 -10.453125 C 7.609375 -11.535156 6.957031 -12.9375 5.75 -14.65625 L 3.84375 -17.390625 C 3.363281 -18.085938 2.910156 -18.628906 2.484375 -19.015625 C 2.054688 -19.398438 1.65625 -19.695312 1.28125 -19.90625 C 0.914062 -20.113281 0.570312 -20.285156 0.25 -20.421875 C -0.0703125 -20.554688 -0.375 -20.71875 -0.65625 -20.90625 C -0.945312 -21.09375 -1.21875 -21.363281 -1.46875 -21.71875 C -1.769531 -22.144531 -1.9375 -22.570312 -1.96875 -23 C -2 -23.4375 -1.929688 -23.867188 -1.765625 -24.296875 C -1.609375 -24.722656 -1.367188 -25.125 -1.046875 -25.5 C -0.734375 -25.875 -0.382812 -26.195312 0 -26.46875 C 0.519531 -26.820312 1.066406 -27.078125 1.640625 -27.234375 C 2.210938 -27.398438 2.753906 -27.425781 3.265625 -27.3125 C 3.773438 -27.195312 4.195312 -26.90625 4.53125 -26.4375 C 4.769531 -26.09375 4.929688 -25.742188 5.015625 -25.390625 C 5.109375 -25.046875 5.175781 -24.6875 5.21875 -24.3125 C 5.257812 -23.945312 5.328125 -23.535156 5.421875 -23.078125 C 5.523438 -22.628906 5.6875 -22.132812 5.90625 -21.59375 C 6.132812 -21.050781 6.476562 -20.445312 6.9375 -19.78125 L 9.375 -16.296875 C 10.019531 -15.359375 10.539062 -14.414062 10.9375 -13.46875 C 11.34375 -12.519531 11.535156 -11.570312 11.515625 -10.625 C 11.503906 -9.6875 11.226562 -8.769531 10.6875 -7.875 C 10.15625 -6.976562 9.296875 -6.113281 8.109375 -5.28125 Z M 8.109375 -5.28125 "/></g></g></g><g fill="#FAEEDA" fill-opacity="1"><g transform="translate(150.106183, 116.335242)"><g><path d="M 4.03125 -0.90625 C 3.476562 -0.71875 2.941406 -0.609375 2.421875 -0.578125 C 1.898438 -0.546875 1.445312 -0.632812 1.0625 -0.84375 C 0.675781 -1.050781 0.398438 -1.390625 0.234375 -1.859375 C 0.0664062 -2.316406 -0.0078125 -2.742188 0 -3.140625 C 0.0078125 -3.546875 0.046875 -3.960938 0.109375 -4.390625 C 0.148438 -4.773438 0.1875 -5.1875 0.21875 -5.625 C 0.25 -6.070312 0.222656 -6.582031 0.140625 -7.15625 C 0.0664062 -7.738281 -0.101562 -8.398438 -0.375 -9.140625 L -1.171875 -11.390625 C -1.523438 -12.367188 -1.878906 -13.160156 -2.234375 -13.765625 C -2.585938 -14.367188 -2.929688 -14.847656 -3.265625 -15.203125 C -3.597656 -15.554688 -3.910156 -15.859375 -4.203125 -16.109375 C -4.472656 -16.367188 -4.71875 -16.617188 -4.9375 -16.859375 C -5.164062 -17.109375 -5.351562 -17.4375 -5.5 -17.84375 C -5.84375 -18.8125 -5.601562 -19.710938 -4.78125 -20.546875 C -3.957031 -21.378906 -2.429688 -22.191406 -0.203125 -22.984375 C 0.429688 -23.210938 1.09375 -23.410156 1.78125 -23.578125 C 2.476562 -23.753906 3.164062 -23.867188 3.84375 -23.921875 C 4.53125 -23.972656 5.179688 -23.921875 5.796875 -23.765625 C 6.421875 -23.617188 6.976562 -23.328125 7.46875 -22.890625 C 7.957031 -22.453125 8.347656 -21.828125 8.640625 -21.015625 C 9.035156 -19.890625 9.128906 -18.863281 8.921875 -17.9375 C 8.722656 -17.007812 8.289062 -16.164062 7.625 -15.40625 C 7.5 -15.289062 7.410156 -15.160156 7.359375 -15.015625 C 7.304688 -14.867188 7.304688 -14.726562 7.359375 -14.59375 C 7.367188 -14.550781 7.382812 -14.507812 7.40625 -14.46875 C 7.4375 -14.4375 7.46875 -14.394531 7.5 -14.34375 C 7.757812 -14.050781 8.109375 -13.734375 8.546875 -13.390625 C 8.992188 -13.046875 9.484375 -12.707031 10.015625 -12.375 C 10.554688 -12.050781 11.101562 -11.738281 11.65625 -11.4375 C 12.207031 -11.132812 12.722656 -10.863281 13.203125 -10.625 C 13.691406 -10.382812 14.097656 -10.207031 14.421875 -10.09375 C 15.140625 -9.832031 15.710938 -9.582031 16.140625 -9.34375 C 16.566406 -9.113281 16.859375 -8.78125 17.015625 -8.34375 C 17.160156 -7.945312 17.171875 -7.554688 17.046875 -7.171875 C 16.921875 -6.785156 16.691406 -6.414062 16.359375 -6.0625 C 16.035156 -5.707031 15.648438 -5.390625 15.203125 -5.109375 C 14.765625 -4.828125 14.300781 -4.597656 13.8125 -4.421875 C 13.257812 -4.222656 12.734375 -4.113281 12.234375 -4.09375 C 11.742188 -4.082031 11.3125 -4.179688 10.9375 -4.390625 C 10.570312 -4.609375 10.304688 -4.953125 10.140625 -5.421875 C 10.066406 -5.617188 10.003906 -5.800781 9.953125 -5.96875 C 9.910156 -6.132812 9.859375 -6.296875 9.796875 -6.453125 C 9.679688 -6.765625 9.535156 -7.085938 9.359375 -7.421875 C 9.191406 -7.765625 8.953125 -8.125 8.640625 -8.5 C 8.328125 -8.875 7.90625 -9.304688 7.375 -9.796875 C 6.851562 -10.285156 6.1875 -10.84375 5.375 -11.46875 C 5.082031 -11.695312 4.84375 -11.882812 4.65625 -12.03125 C 4.46875 -12.175781 4.300781 -12.269531 4.15625 -12.3125 C 4.019531 -12.363281 3.863281 -12.359375 3.6875 -12.296875 C 3.351562 -12.171875 3.179688 -11.894531 3.171875 -11.46875 C 3.171875 -11.050781 3.273438 -10.539062 3.484375 -9.9375 C 3.703125 -9.34375 3.9375 -8.851562 4.1875 -8.46875 C 4.4375 -8.082031 4.691406 -7.753906 4.953125 -7.484375 C 5.222656 -7.222656 5.484375 -6.984375 5.734375 -6.765625 C 6.054688 -6.503906 6.347656 -6.234375 6.609375 -5.953125 C 6.867188 -5.679688 7.082031 -5.3125 7.25 -4.84375 C 7.394531 -4.445312 7.398438 -4.050781 7.265625 -3.65625 C 7.140625 -3.269531 6.914062 -2.898438 6.59375 -2.546875 C 6.269531 -2.203125 5.882812 -1.882812 5.4375 -1.59375 C 4.988281 -1.3125 4.519531 -1.082031 4.03125 -0.90625 Z M 3.09375 -15.390625 C 3.675781 -15.597656 4.101562 -15.90625 4.375 -16.3125 C 4.65625 -16.71875 4.804688 -17.144531 4.828125 -17.59375 C 4.859375 -18.039062 4.8125 -18.441406 4.6875 -18.796875 C 4.59375 -19.046875 4.457031 -19.300781 4.28125 -19.5625 C 4.101562 -19.832031 3.882812 -20.0625 3.625 -20.25 C 3.363281 -20.4375 3.0625 -20.554688 2.71875 -20.609375 C 2.382812 -20.660156 2.007812 -20.613281 1.59375 -20.46875 C 1.25 -20.332031 0.96875 -20.15625 0.75 -19.9375 C 0.539062 -19.726562 0.425781 -19.4375 0.40625 -19.0625 C 0.382812 -18.695312 0.476562 -18.226562 0.6875 -17.65625 C 0.914062 -17.019531 1.128906 -16.535156 1.328125 -16.203125 C 1.535156 -15.867188 1.738281 -15.632812 1.9375 -15.5 C 2.132812 -15.363281 2.332031 -15.296875 2.53125 -15.296875 C 2.726562 -15.296875 2.914062 -15.328125 3.09375 -15.390625 Z M 3.09375 -15.390625 "/></g></g></g><g fill="#FAEEDA" fill-opacity="1"><g transform="translate(172.05196, 109.514951)"><g/></g></g><g fill="#FAEEDA" fill-opacity="1"><g transform="translate(184.195347, 107.699085)"><g><path d="M 6.828125 0.921875 C 4.878906 0.785156 3.398438 0.53125 2.390625 0.15625 C 1.378906 -0.21875 0.90625 -0.804688 0.96875 -1.609375 C 0.988281 -1.984375 1.0625 -2.347656 1.1875 -2.703125 C 1.320312 -3.054688 1.550781 -3.519531 1.875 -4.09375 C 2.195312 -4.664062 2.460938 -5.191406 2.671875 -5.671875 C 2.878906 -6.160156 3.035156 -6.628906 3.140625 -7.078125 C 3.242188 -7.535156 3.3125 -8.019531 3.34375 -8.53125 L 3.515625 -10.90625 C 3.566406 -11.675781 3.570312 -12.375 3.53125 -13 C 3.5 -13.625 3.410156 -14.210938 3.265625 -14.765625 C 3.117188 -15.316406 2.910156 -15.867188 2.640625 -16.421875 C 2.429688 -16.929688 2.289062 -17.332031 2.21875 -17.625 C 2.15625 -17.925781 2.132812 -18.234375 2.15625 -18.546875 C 2.207031 -19.253906 2.523438 -19.8125 3.109375 -20.21875 C 3.691406 -20.632812 4.46875 -20.914062 5.4375 -21.0625 C 6.414062 -21.207031 7.523438 -21.234375 8.765625 -21.140625 C 10.578125 -21.015625 12.148438 -20.628906 13.484375 -19.984375 C 14.816406 -19.347656 15.90625 -18.503906 16.75 -17.453125 C 17.601562 -16.398438 18.21875 -15.203125 18.59375 -13.859375 C 18.976562 -12.523438 19.117188 -11.09375 19.015625 -9.5625 C 18.878906 -7.644531 18.554688 -5.988281 18.046875 -4.59375 C 17.546875 -3.195312 16.816406 -2.066406 15.859375 -1.203125 C 14.910156 -0.347656 13.691406 0.253906 12.203125 0.609375 C 10.710938 0.960938 8.921875 1.066406 6.828125 0.921875 Z M 9.65625 -2.328125 C 10.832031 -2.242188 11.785156 -2.828125 12.515625 -4.078125 C 13.253906 -5.328125 13.710938 -7.222656 13.890625 -9.765625 C 14.003906 -11.304688 13.890625 -12.640625 13.546875 -13.765625 C 13.210938 -14.890625 12.707031 -15.773438 12.03125 -16.421875 C 11.351562 -17.066406 10.5625 -17.421875 9.65625 -17.484375 C 9.28125 -17.515625 8.953125 -17.460938 8.671875 -17.328125 C 8.390625 -17.203125 8.164062 -16.941406 8 -16.546875 C 7.832031 -16.148438 7.722656 -15.554688 7.671875 -14.765625 C 7.640625 -14.359375 7.601562 -13.875 7.5625 -13.3125 C 7.519531 -12.757812 7.476562 -12.171875 7.4375 -11.546875 C 7.40625 -10.929688 7.367188 -10.320312 7.328125 -9.71875 C 7.296875 -9.113281 7.257812 -8.550781 7.21875 -8.03125 C 7.1875 -7.519531 7.160156 -7.09375 7.140625 -6.75 C 7.023438 -5.21875 7.175781 -4.113281 7.59375 -3.4375 C 8.019531 -2.769531 8.707031 -2.398438 9.65625 -2.328125 Z M 9.65625 -2.328125 "/></g></g></g><g fill="#FAEEDA" fill-opacity="1"><g transform="translate(206.761863, 109.81284)"><g><path d="M 2.890625 1.515625 C 2.347656 1.328125 1.863281 1.082031 1.4375 0.78125 C 1.019531 0.476562 0.71875 0.125 0.53125 -0.28125 C 0.351562 -0.6875 0.347656 -1.125 0.515625 -1.59375 C 0.640625 -1.957031 0.796875 -2.242188 0.984375 -2.453125 C 1.171875 -2.660156 1.382812 -2.828125 1.625 -2.953125 C 1.863281 -3.085938 2.125 -3.226562 2.40625 -3.375 C 2.632812 -3.476562 2.890625 -3.601562 3.171875 -3.75 C 3.453125 -3.894531 3.769531 -4.109375 4.125 -4.390625 C 4.488281 -4.679688 4.898438 -5.070312 5.359375 -5.5625 C 5.828125 -6.0625 6.367188 -6.71875 6.984375 -7.53125 L 8.140625 -9.03125 C 8.785156 -9.925781 9.304688 -10.695312 9.703125 -11.34375 C 10.097656 -12 10.398438 -12.5625 10.609375 -13.03125 C 10.816406 -13.5 10.96875 -13.90625 11.0625 -14.25 C 11.15625 -14.59375 11.238281 -14.90625 11.3125 -15.1875 C 11.363281 -15.332031 11.398438 -15.460938 11.421875 -15.578125 C 11.453125 -15.691406 11.488281 -15.8125 11.53125 -15.9375 C 11.675781 -16.363281 11.921875 -16.703125 12.265625 -16.953125 C 12.617188 -17.210938 13.03125 -17.394531 13.5 -17.5 C 13.976562 -17.601562 14.472656 -17.632812 14.984375 -17.59375 C 15.503906 -17.550781 16.003906 -17.445312 16.484375 -17.28125 C 17.035156 -17.09375 17.523438 -16.832031 17.953125 -16.5 C 18.390625 -16.164062 18.703125 -15.773438 18.890625 -15.328125 C 19.078125 -14.890625 19.078125 -14.398438 18.890625 -13.859375 C 18.847656 -13.734375 18.800781 -13.609375 18.75 -13.484375 C 18.695312 -13.367188 18.632812 -13.25 18.5625 -13.125 C 18.457031 -12.851562 18.328125 -12.546875 18.171875 -12.203125 C 18.023438 -11.867188 17.882812 -11.445312 17.75 -10.9375 C 17.613281 -10.4375 17.488281 -9.8125 17.375 -9.0625 C 17.269531 -8.3125 17.207031 -7.390625 17.1875 -6.296875 L 17.0625 -3.125 C 17.039062 -2.320312 17.046875 -1.648438 17.078125 -1.109375 C 17.117188 -0.578125 17.171875 -0.132812 17.234375 0.21875 C 17.304688 0.570312 17.390625 0.863281 17.484375 1.09375 C 17.578125 1.320312 17.660156 1.53125 17.734375 1.71875 C 17.878906 2.070312 17.984375 2.398438 18.046875 2.703125 C 18.117188 3.015625 18.070312 3.414062 17.90625 3.90625 C 17.769531 4.300781 17.523438 4.613281 17.171875 4.84375 C 16.828125 5.070312 16.421875 5.21875 15.953125 5.28125 C 15.484375 5.351562 14.984375 5.359375 14.453125 5.296875 C 13.921875 5.242188 13.410156 5.128906 12.921875 4.953125 C 12.367188 4.765625 11.878906 4.519531 11.453125 4.21875 C 11.035156 3.914062 10.738281 3.5625 10.5625 3.15625 C 10.382812 2.757812 10.378906 2.328125 10.546875 1.859375 C 10.660156 1.515625 10.800781 1.25 10.96875 1.0625 C 11.132812 0.875 11.320312 0.691406 11.53125 0.515625 C 11.6875 0.390625 11.859375 0.222656 12.046875 0.015625 C 12.242188 -0.191406 12.421875 -0.40625 12.578125 -0.625 C 12.742188 -0.84375 12.851562 -1.039062 12.90625 -1.21875 C 12.988281 -1.457031 12.976562 -1.6875 12.875 -1.90625 C 12.78125 -2.125 12.625 -2.316406 12.40625 -2.484375 C 12.1875 -2.648438 11.953125 -2.773438 11.703125 -2.859375 L 10.265625 -3.359375 C 9.671875 -3.554688 9.207031 -3.578125 8.875 -3.421875 C 8.539062 -3.273438 8.300781 -3 8.15625 -2.59375 C 8.050781 -2.28125 7.992188 -1.972656 7.984375 -1.671875 C 7.972656 -1.378906 7.972656 -1.097656 7.984375 -0.828125 C 7.992188 -0.609375 8 -0.394531 8 -0.1875 C 8 0.0195312 7.957031 0.238281 7.875 0.46875 C 7.738281 0.863281 7.492188 1.171875 7.140625 1.390625 C 6.796875 1.617188 6.390625 1.769531 5.921875 1.84375 C 5.453125 1.914062 4.953125 1.921875 4.421875 1.859375 C 3.898438 1.796875 3.390625 1.679688 2.890625 1.515625 Z M 11.546875 -5.078125 L 11.984375 -4.9375 C 12.359375 -4.800781 12.675781 -4.796875 12.9375 -4.921875 C 13.195312 -5.054688 13.382812 -5.289062 13.5 -5.625 C 13.644531 -6.0625 13.773438 -6.609375 13.890625 -7.265625 C 14.003906 -7.929688 14.113281 -8.644531 14.21875 -9.40625 C 14.238281 -9.71875 14.269531 -10.03125 14.3125 -10.34375 C 14.363281 -10.65625 14.414062 -10.972656 14.46875 -11.296875 C 14.488281 -11.484375 14.472656 -11.632812 14.421875 -11.75 C 14.367188 -11.863281 14.304688 -11.9375 14.234375 -11.96875 C 14.046875 -12.03125 13.847656 -11.898438 13.640625 -11.578125 C 13.421875 -11.210938 13.207031 -10.851562 13 -10.5 C 12.789062 -10.144531 12.582031 -9.804688 12.375 -9.484375 C 12.007812 -8.910156 11.679688 -8.367188 11.390625 -7.859375 C 11.109375 -7.347656 10.894531 -6.894531 10.75 -6.5 C 10.644531 -6.164062 10.664062 -5.875 10.8125 -5.625 C 10.957031 -5.382812 11.203125 -5.203125 11.546875 -5.078125 Z M 11.546875 -5.078125 "/></g></g></g><g fill="#FAEEDA" fill-opacity="1"><g transform="translate(227.600028, 117.923134)"><g><path d="M 3.265625 2.53125 C 2.765625 2.226562 2.335938 1.882812 1.984375 1.5 C 1.628906 1.125 1.40625 0.71875 1.3125 0.28125 C 1.226562 -0.144531 1.316406 -0.570312 1.578125 -1 C 1.804688 -1.382812 2.070312 -1.703125 2.375 -1.953125 C 2.675781 -2.203125 3.003906 -2.441406 3.359375 -2.671875 C 3.710938 -2.898438 4.082031 -3.15625 4.46875 -3.4375 C 4.863281 -3.71875 5.257812 -4.066406 5.65625 -4.484375 C 6.0625 -4.898438 6.457031 -5.429688 6.84375 -6.078125 L 8.546875 -8.9375 C 8.984375 -9.65625 9.289062 -10.289062 9.46875 -10.84375 C 9.65625 -11.394531 9.765625 -11.878906 9.796875 -12.296875 C 9.828125 -12.710938 9.835938 -13.097656 9.828125 -13.453125 C 9.828125 -13.804688 9.851562 -14.148438 9.90625 -14.484375 C 9.957031 -14.828125 10.097656 -15.1875 10.328125 -15.5625 C 10.597656 -16 10.921875 -16.320312 11.296875 -16.53125 C 11.679688 -16.75 12.101562 -16.867188 12.5625 -16.890625 C 13.019531 -16.910156 13.476562 -16.851562 13.9375 -16.71875 C 14.40625 -16.59375 14.847656 -16.398438 15.265625 -16.140625 C 15.796875 -15.828125 16.25 -15.4375 16.625 -14.96875 C 17.007812 -14.507812 17.253906 -14.023438 17.359375 -13.515625 C 17.472656 -13.003906 17.382812 -12.503906 17.09375 -12.015625 C 16.875 -11.640625 16.625 -11.34375 16.34375 -11.125 C 16.0625 -10.90625 15.753906 -10.695312 15.421875 -10.5 C 15.097656 -10.3125 14.75 -10.082031 14.375 -9.8125 C 14 -9.539062 13.613281 -9.191406 13.21875 -8.765625 C 12.820312 -8.335938 12.414062 -7.773438 12 -7.078125 L 10.28125 -4.21875 C 9.851562 -3.507812 9.546875 -2.878906 9.359375 -2.328125 C 9.171875 -1.773438 9.050781 -1.28125 9 -0.84375 C 8.945312 -0.40625 8.914062 0 8.90625 0.375 C 8.894531 0.75 8.859375 1.109375 8.796875 1.453125 C 8.734375 1.796875 8.585938 2.160156 8.359375 2.546875 C 8.140625 2.910156 7.835938 3.164062 7.453125 3.3125 C 7.066406 3.457031 6.632812 3.515625 6.15625 3.484375 C 5.675781 3.460938 5.179688 3.363281 4.671875 3.1875 C 4.171875 3.019531 3.703125 2.800781 3.265625 2.53125 Z M 3.265625 2.53125 "/></g></g></g><g fill="#FAEEDA" fill-opacity="1"><g transform="translate(239.196764, 124.966418)"><g><path d="M 5.875 6.078125 C 4.75 5.046875 3.847656 4.164062 3.171875 3.4375 C 2.503906 2.707031 2.023438 2.085938 1.734375 1.578125 C 1.453125 1.078125 1.316406 0.644531 1.328125 0.28125 C 1.347656 -0.0703125 1.488281 -0.390625 1.75 -0.671875 C 2.082031 -1.035156 2.429688 -1.3125 2.796875 -1.5 C 3.171875 -1.695312 3.570312 -1.878906 4 -2.046875 C 4.394531 -2.203125 4.804688 -2.378906 5.234375 -2.578125 C 5.660156 -2.785156 6.128906 -3.082031 6.640625 -3.46875 C 7.148438 -3.851562 7.71875 -4.382812 8.34375 -5.0625 L 10.171875 -7.046875 C 10.734375 -7.671875 11.15625 -8.234375 11.4375 -8.734375 C 11.726562 -9.234375 11.929688 -9.6875 12.046875 -10.09375 C 12.171875 -10.5 12.257812 -10.875 12.3125 -11.21875 C 12.375 -11.5625 12.46875 -11.894531 12.59375 -12.21875 C 12.71875 -12.539062 12.929688 -12.863281 13.234375 -13.1875 C 13.585938 -13.570312 13.96875 -13.828125 14.375 -13.953125 C 14.789062 -14.078125 15.222656 -14.101562 15.671875 -14.03125 C 16.128906 -13.96875 16.570312 -13.820312 17 -13.59375 C 17.4375 -13.375 17.835938 -13.097656 18.203125 -12.765625 C 18.648438 -12.347656 19.015625 -11.875 19.296875 -11.34375 C 19.578125 -10.820312 19.71875 -10.296875 19.71875 -9.765625 C 19.726562 -9.242188 19.539062 -8.773438 19.15625 -8.359375 C 18.863281 -8.046875 18.554688 -7.804688 18.234375 -7.640625 C 17.921875 -7.472656 17.582031 -7.328125 17.21875 -7.203125 C 16.863281 -7.085938 16.472656 -6.9375 16.046875 -6.75 C 15.628906 -6.5625 15.179688 -6.296875 14.703125 -5.953125 C 14.222656 -5.609375 13.710938 -5.140625 13.171875 -4.546875 L 10.921875 -2.09375 C 9.929688 -1.019531 9.191406 -0.0859375 8.703125 0.703125 C 8.210938 1.503906 7.976562 2.203125 8 2.796875 C 8.03125 3.398438 8.300781 3.9375 8.8125 4.40625 C 9.144531 4.707031 9.472656 4.910156 9.796875 5.015625 C 10.117188 5.128906 10.445312 5.179688 10.78125 5.171875 C 11.113281 5.160156 11.441406 5.132812 11.765625 5.09375 C 12.085938 5.0625 12.394531 5.039062 12.6875 5.03125 C 12.988281 5.03125 13.285156 5.070312 13.578125 5.15625 C 13.867188 5.238281 14.15625 5.410156 14.4375 5.671875 C 14.695312 5.910156 14.867188 6.207031 14.953125 6.5625 C 15.035156 6.925781 15.03125 7.296875 14.9375 7.671875 C 14.84375 8.046875 14.648438 8.390625 14.359375 8.703125 C 13.847656 9.253906 13.34375 9.632812 12.84375 9.84375 C 12.34375 10.0625 11.785156 10.078125 11.171875 9.890625 C 10.554688 9.703125 9.820312 9.296875 8.96875 8.671875 C 8.125 8.054688 7.09375 7.191406 5.875 6.078125 Z M 5.875 6.078125 "/></g></g></g><g fill="#FAEEDA" fill-opacity="1"><g transform="translate(253.919057, 138.781941)"><g><path d="M 4.75 8.296875 C 4.4375 7.816406 4.207031 7.328125 4.0625 6.828125 C 3.914062 6.328125 3.898438 5.863281 4.015625 5.4375 C 4.128906 5.007812 4.394531 4.660156 4.8125 4.390625 C 5.164062 4.160156 5.53125 4 5.90625 3.90625 C 6.289062 3.820312 6.6875 3.753906 7.09375 3.703125 C 7.5 3.660156 7.925781 3.601562 8.375 3.53125 C 8.832031 3.46875 9.320312 3.347656 9.84375 3.171875 C 10.375 2.992188 10.9375 2.710938 11.53125 2.328125 C 12.050781 1.953125 12.441406 1.601562 12.703125 1.28125 C 12.960938 0.96875 13.144531 0.675781 13.25 0.40625 C 13.363281 0.144531 13.476562 -0.0859375 13.59375 -0.296875 C 13.976562 -1.085938 14.222656 -1.832031 14.328125 -2.53125 C 14.441406 -3.238281 14.476562 -3.890625 14.4375 -4.484375 C 14.40625 -5.085938 14.351562 -5.648438 14.28125 -6.171875 C 14.207031 -6.691406 14.164062 -7.164062 14.15625 -7.59375 C 14.15625 -8.03125 14.234375 -8.429688 14.390625 -8.796875 C 14.554688 -9.171875 14.875 -9.503906 15.34375 -9.796875 C 15.78125 -10.078125 16.242188 -10.238281 16.734375 -10.28125 C 17.234375 -10.320312 17.710938 -10.269531 18.171875 -10.125 C 18.628906 -9.976562 19.050781 -9.765625 19.4375 -9.484375 C 19.820312 -9.203125 20.132812 -8.875 20.375 -8.5 C 20.769531 -7.894531 20.972656 -7.335938 20.984375 -6.828125 C 21.003906 -6.316406 20.875 -5.835938 20.59375 -5.390625 C 20.320312 -4.941406 19.941406 -4.503906 19.453125 -4.078125 C 19.210938 -3.867188 18.972656 -3.644531 18.734375 -3.40625 C 18.503906 -3.175781 18.28125 -2.90625 18.0625 -2.59375 C 17.851562 -2.289062 17.644531 -1.894531 17.4375 -1.40625 C 17.226562 -0.914062 17.007812 -0.328125 16.78125 0.359375 C 16.695312 0.628906 16.648438 0.832031 16.640625 0.96875 C 16.640625 1.101562 16.660156 1.203125 16.703125 1.265625 C 16.753906 1.347656 16.847656 1.421875 16.984375 1.484375 C 17.128906 1.546875 17.359375 1.570312 17.671875 1.5625 C 18.085938 1.5625 18.523438 1.5625 18.984375 1.5625 C 19.453125 1.5625 19.941406 1.507812 20.453125 1.40625 C 20.960938 1.300781 21.503906 1.109375 22.078125 0.828125 C 23.234375 0.296875 24.25 0.179688 25.125 0.484375 C 26.007812 0.785156 26.742188 1.394531 27.328125 2.3125 C 27.660156 2.820312 27.878906 3.351562 27.984375 3.90625 C 28.085938 4.457031 28.066406 4.96875 27.921875 5.4375 C 27.773438 5.914062 27.484375 6.296875 27.046875 6.578125 C 26.617188 6.847656 26.179688 7 25.734375 7.03125 C 25.285156 7.070312 24.828125 7.023438 24.359375 6.890625 C 23.898438 6.765625 23.421875 6.59375 22.921875 6.375 C 22.429688 6.164062 21.914062 5.945312 21.375 5.71875 C 20.84375 5.488281 20.269531 5.285156 19.65625 5.109375 C 19.050781 4.941406 18.410156 4.84375 17.734375 4.8125 C 17.222656 4.789062 16.785156 4.78125 16.421875 4.78125 C 16.066406 4.78125 15.742188 4.800781 15.453125 4.84375 C 15.171875 4.894531 14.894531 4.976562 14.625 5.09375 C 14.351562 5.21875 14.050781 5.375 13.71875 5.5625 C 13.101562 5.945312 12.613281 6.328125 12.25 6.703125 C 11.894531 7.085938 11.601562 7.457031 11.375 7.8125 C 11.15625 8.175781 10.957031 8.519531 10.78125 8.84375 C 10.601562 9.175781 10.40625 9.484375 10.1875 9.765625 C 9.96875 10.054688 9.675781 10.320312 9.3125 10.5625 C 8.957031 10.789062 8.578125 10.882812 8.171875 10.84375 C 7.765625 10.800781 7.351562 10.660156 6.9375 10.421875 C 6.519531 10.191406 6.117188 9.890625 5.734375 9.515625 C 5.359375 9.148438 5.03125 8.742188 4.75 8.296875 Z M 4.75 8.296875 "/></g></g></g><g fill="#FAEEDA" fill-opacity="1"><g transform="translate(266.092027, 159.701245)"><g/></g></g><g fill="#FAEEDA" fill-opacity="1"><g transform="translate(122.308536, 262.90578)"><g><path d="M 20.328125 -9.421875 C 21.773438 -8.367188 22.609375 -7.242188 22.828125 -6.046875 C 23.046875 -4.847656 22.671875 -3.582031 21.703125 -2.25 C 21.179688 -1.539062 20.546875 -1.046875 19.796875 -0.765625 C 19.054688 -0.492188 18.238281 -0.457031 17.34375 -0.65625 C 16.457031 -0.851562 15.519531 -1.3125 14.53125 -2.03125 L 15.375 -2.984375 C 15.84375 -2.640625 16.328125 -2.179688 16.828125 -1.609375 C 17.335938 -1.046875 17.753906 -0.398438 18.078125 0.328125 C 18.410156 1.066406 18.546875 1.859375 18.484375 2.703125 C 18.429688 3.554688 18.078125 4.4375 17.421875 5.34375 C 16.691406 6.34375 15.9375 7.039062 15.15625 7.4375 C 14.375 7.832031 13.59375 8.007812 12.8125 7.96875 C 12.03125 7.9375 11.285156 7.757812 10.578125 7.4375 C 9.878906 7.125 9.253906 6.765625 8.703125 6.359375 L 3.078125 2.25 C 2.679688 1.957031 2.445312 1.582031 2.375 1.125 C 2.300781 0.664062 2.40625 0.242188 2.6875 -0.140625 L 12.234375 -13.21875 C 12.523438 -13.601562 12.898438 -13.832031 13.359375 -13.90625 C 13.816406 -13.976562 14.242188 -13.867188 14.640625 -13.578125 Z M 17.96875 -7.046875 L 13.953125 -9.984375 L 14.5 -10.140625 L 11.515625 -6.03125 L 11.390625 -6.4375 L 15.453125 -3.46875 C 15.890625 -3.144531 16.382812 -3 16.9375 -3.03125 C 17.5 -3.0625 17.984375 -3.347656 18.390625 -3.890625 C 18.859375 -4.546875 19.035156 -5.140625 18.921875 -5.671875 C 18.816406 -6.203125 18.5 -6.660156 17.96875 -7.046875 Z M 13.640625 -0.734375 L 9.515625 -3.734375 L 9.84375 -3.75 L 6.359375 1.015625 L 6.3125 0.625 L 10.609375 3.765625 C 11.296875 4.265625 11.976562 4.476562 12.65625 4.40625 C 13.332031 4.34375 13.941406 3.941406 14.484375 3.203125 C 14.984375 2.523438 15.207031 1.9375 15.15625 1.4375 C 15.101562 0.9375 14.914062 0.507812 14.59375 0.15625 C 14.269531 -0.195312 13.953125 -0.492188 13.640625 -0.734375 Z M 13.640625 -0.734375 "/></g></g></g><g fill="#FAEEDA" fill-opacity="1"><g transform="translate(148.637548, 279.810454)"><g><path d="M 22.140625 -3.296875 C 21.722656 -1.960938 21.109375 -0.789062 20.296875 0.21875 C 19.492188 1.238281 18.546875 2.0625 17.453125 2.6875 C 16.367188 3.320312 15.191406 3.710938 13.921875 3.859375 C 12.660156 4.003906 11.367188 3.867188 10.046875 3.453125 C 8.734375 3.035156 7.597656 2.40625 6.640625 1.5625 C 5.691406 0.71875 4.953125 -0.269531 4.421875 -1.40625 C 3.890625 -2.550781 3.582031 -3.769531 3.5 -5.0625 C 3.425781 -6.351562 3.597656 -7.664062 4.015625 -9 C 4.441406 -10.34375 5.054688 -11.523438 5.859375 -12.546875 C 6.671875 -13.566406 7.617188 -14.390625 8.703125 -15.015625 C 9.785156 -15.640625 10.957031 -16.023438 12.21875 -16.171875 C 13.488281 -16.316406 14.78125 -16.179688 16.09375 -15.765625 C 17.414062 -15.347656 18.550781 -14.71875 19.5 -13.875 C 20.457031 -13.03125 21.203125 -12.039062 21.734375 -10.90625 C 22.273438 -9.769531 22.582031 -8.550781 22.65625 -7.25 C 22.738281 -5.957031 22.566406 -4.640625 22.140625 -3.296875 Z M 18.65625 -4.390625 C 19.03125 -5.585938 19.132812 -6.75 18.96875 -7.875 C 18.800781 -9 18.382812 -9.972656 17.71875 -10.796875 C 17.0625 -11.628906 16.179688 -12.21875 15.078125 -12.5625 C 13.972656 -12.914062 12.914062 -12.941406 11.90625 -12.640625 C 10.894531 -12.335938 10 -11.773438 9.21875 -10.953125 C 8.445312 -10.128906 7.867188 -9.113281 7.484375 -7.90625 C 7.109375 -6.71875 7.003906 -5.566406 7.171875 -4.453125 C 7.347656 -3.335938 7.757812 -2.363281 8.40625 -1.53125 C 9.0625 -0.695312 9.941406 -0.101562 11.046875 0.25 C 12.148438 0.59375 13.210938 0.609375 14.234375 0.296875 C 15.253906 -0.00390625 16.148438 -0.5625 16.921875 -1.375 C 17.703125 -2.195312 18.28125 -3.203125 18.65625 -4.390625 Z M 18.65625 -4.390625 "/></g></g></g><g fill="#FAEEDA" fill-opacity="1"><g transform="translate(181.994761, 287.952764)"><g><path d="M 19.75 -10.546875 C 19.800781 -9.148438 19.613281 -7.835938 19.1875 -6.609375 C 18.769531 -5.378906 18.15625 -4.285156 17.34375 -3.328125 C 16.53125 -2.367188 15.550781 -1.601562 14.40625 -1.03125 C 13.257812 -0.46875 12 -0.160156 10.625 -0.109375 C 9.25 -0.0546875 7.96875 -0.269531 6.78125 -0.75 C 5.601562 -1.226562 4.570312 -1.914062 3.6875 -2.8125 C 2.800781 -3.707031 2.101562 -4.753906 1.59375 -5.953125 C 1.09375 -7.148438 0.816406 -8.445312 0.765625 -9.84375 C 0.710938 -11.238281 0.894531 -12.550781 1.3125 -13.78125 C 1.726562 -15.007812 2.34375 -16.097656 3.15625 -17.046875 C 3.96875 -18.003906 4.945312 -18.765625 6.09375 -19.328125 C 7.238281 -19.890625 8.5 -20.195312 9.875 -20.25 C 11.25 -20.300781 12.523438 -20.085938 13.703125 -19.609375 C 14.890625 -19.140625 15.925781 -18.457031 16.8125 -17.5625 C 17.695312 -16.675781 18.394531 -15.632812 18.90625 -14.4375 C 19.414062 -13.238281 19.695312 -11.941406 19.75 -10.546875 Z M 16.109375 -10.40625 C 16.054688 -11.644531 15.757812 -12.765625 15.21875 -13.765625 C 14.6875 -14.773438 13.96875 -15.554688 13.0625 -16.109375 C 12.164062 -16.671875 11.144531 -16.929688 10 -16.890625 C 8.84375 -16.847656 7.835938 -16.515625 6.984375 -15.890625 C 6.128906 -15.265625 5.472656 -14.4375 5.015625 -13.40625 C 4.554688 -12.375 4.351562 -11.226562 4.40625 -9.96875 C 4.445312 -8.71875 4.734375 -7.59375 5.265625 -6.59375 C 5.796875 -5.601562 6.507812 -4.820312 7.40625 -4.25 C 8.3125 -3.6875 9.34375 -3.425781 10.5 -3.46875 C 11.644531 -3.507812 12.644531 -3.847656 13.5 -4.484375 C 14.351562 -5.117188 15.007812 -5.953125 15.46875 -6.984375 C 15.9375 -8.015625 16.148438 -9.15625 16.109375 -10.40625 Z M 16.109375 -10.40625 "/></g></g></g><g fill="#FAEEDA" fill-opacity="1"><g transform="translate(215.844946, 284.296109)"><g><path d="M 7.984375 -2.65625 C 6.742188 -2.195312 5.578125 -1.9375 4.484375 -1.875 C 3.390625 -1.820312 2.257812 -2.019531 1.09375 -2.46875 C 0.789062 -2.570312 0.535156 -2.722656 0.328125 -2.921875 C 0.117188 -3.128906 -0.03125 -3.351562 -0.125 -3.59375 C -0.269531 -4 -0.253906 -4.40625 -0.078125 -4.8125 C 0.0859375 -5.226562 0.390625 -5.519531 0.828125 -5.6875 C 1.160156 -5.8125 1.5 -5.8125 1.84375 -5.6875 C 2.707031 -5.40625 3.519531 -5.238281 4.28125 -5.1875 C 5.039062 -5.144531 5.90625 -5.304688 6.875 -5.671875 C 7.507812 -5.910156 8.0625 -6.226562 8.53125 -6.625 C 9.007812 -7.03125 9.347656 -7.460938 9.546875 -7.921875 C 9.742188 -8.390625 9.765625 -8.847656 9.609375 -9.296875 C 9.410156 -9.816406 9.085938 -10.203125 8.640625 -10.453125 C 8.191406 -10.703125 7.597656 -10.832031 6.859375 -10.84375 C 6.117188 -10.851562 5.222656 -10.75 4.171875 -10.53125 C 3.171875 -10.320312 2.253906 -10.226562 1.421875 -10.25 C 0.597656 -10.269531 -0.128906 -10.410156 -0.765625 -10.671875 C -1.410156 -10.941406 -1.96875 -11.335938 -2.4375 -11.859375 C -2.914062 -12.378906 -3.296875 -13.015625 -3.578125 -13.765625 C -3.992188 -14.898438 -4.054688 -15.972656 -3.765625 -16.984375 C -3.484375 -18.003906 -2.914062 -18.910156 -2.0625 -19.703125 C -1.21875 -20.492188 -0.191406 -21.113281 1.015625 -21.5625 C 2.148438 -21.988281 3.265625 -22.207031 4.359375 -22.21875 C 5.460938 -22.238281 6.414062 -22.109375 7.21875 -21.828125 C 7.875 -21.585938 8.296875 -21.207031 8.484375 -20.6875 C 8.628906 -20.300781 8.613281 -19.894531 8.4375 -19.46875 C 8.257812 -19.050781 7.960938 -18.769531 7.546875 -18.625 C 7.285156 -18.519531 7.023438 -18.507812 6.765625 -18.59375 C 6.390625 -18.726562 5.925781 -18.820312 5.375 -18.875 C 4.832031 -18.925781 4.269531 -18.925781 3.6875 -18.875 C 3.101562 -18.820312 2.582031 -18.710938 2.125 -18.546875 C 1.363281 -18.265625 0.765625 -17.929688 0.328125 -17.546875 C -0.109375 -17.171875 -0.398438 -16.765625 -0.546875 -16.328125 C -0.691406 -15.898438 -0.679688 -15.46875 -0.515625 -15.03125 C -0.316406 -14.507812 -0.00390625 -14.132812 0.421875 -13.90625 C 0.859375 -13.675781 1.398438 -13.566406 2.046875 -13.578125 C 2.703125 -13.585938 3.460938 -13.660156 4.328125 -13.796875 C 5.453125 -14.003906 6.457031 -14.117188 7.34375 -14.140625 C 8.238281 -14.171875 9.019531 -14.078125 9.6875 -13.859375 C 10.363281 -13.648438 10.953125 -13.28125 11.453125 -12.75 C 11.953125 -12.226562 12.363281 -11.523438 12.6875 -10.640625 C 13.113281 -9.492188 13.160156 -8.394531 12.828125 -7.34375 C 12.503906 -6.300781 11.910156 -5.367188 11.046875 -4.546875 C 10.179688 -3.722656 9.160156 -3.09375 7.984375 -2.65625 Z M 7.984375 -2.65625 "/></g></g></g><g fill="#FAEEDA" fill-opacity="1"><g transform="translate(242.689055, 272.424519)"><g><path d="M 6.953125 -5.296875 C 6.535156 -4.972656 6.09375 -4.835938 5.625 -4.890625 C 5.15625 -4.953125 4.773438 -5.175781 4.484375 -5.5625 L -5.359375 -18.484375 L -2.453125 -20.6875 L 7.390625 -7.765625 C 7.679688 -7.378906 7.785156 -6.953125 7.703125 -6.484375 C 7.628906 -6.015625 7.378906 -5.617188 6.953125 -5.296875 Z M -7.890625 -14.578125 C -8.285156 -14.273438 -8.703125 -14.144531 -9.140625 -14.1875 C -9.578125 -14.238281 -9.941406 -14.453125 -10.234375 -14.828125 C -10.535156 -15.222656 -10.644531 -15.628906 -10.5625 -16.046875 C -10.476562 -16.472656 -10.238281 -16.835938 -9.84375 -17.140625 L 0.046875 -24.671875 C 0.421875 -24.960938 0.832031 -25.085938 1.28125 -25.046875 C 1.726562 -25.003906 2.097656 -24.789062 2.390625 -24.40625 C 2.679688 -24.019531 2.78125 -23.613281 2.6875 -23.1875 C 2.601562 -22.757812 2.375 -22.398438 2 -22.109375 Z M -7.890625 -14.578125 "/></g></g></g><g fill="#FAEEDA" fill-opacity="1"><g transform="translate(264.931104, 252.835695)"><g/></g></g></svg>
